<svg version="1.1" width="1400" height="1000" xmlns="http://www.w3.org/2000/svg">

<polygon points="532.2,492.2  
553.4,471.7  787.7,723.6  775.4,735.4  "
fill="#FFFFFF" fill-opacity="0.00" stroke="none" />

<polygon points="552.8,472.3  
574.7,452.6  800.1,712.4  787.4,723.9  "
fill="#FFFFF3" fill-opacity="0.04" stroke="none" />

<polygon points="574.0,453.1  
596.6,434.2  812.8,701.8  799.7,712.8  "
fill="#FEFEE8" fill-opacity="0.07" stroke="none" />

<polygon points="596.0,434.7  
619.2,416.6  825.9,691.6  812.4,702.1  "
fill="#FFFFDC" fill-opacity="0.11" stroke="none" />

<polygon points="618.5,417.1  
642.3,399.8  839.4,681.8  825.5,691.8  "
fill="#FFFFD1" fill-opacity="0.14" stroke="none" />

<polygon points="641.7,400.3  
666.1,383.8  853.2,672.5  839.0,682.1  "
fill="#FFFFC6" fill-opacity="0.18" stroke="none" />

<polygon points="665.4,384.3  
690.4,368.7  867.3,663.7  852.8,672.8  "
fill="#FEFEBA" fill-opacity="0.21" stroke="none" />

<polygon points="689.7,369.1  
715.2,354.4  881.6,655.5  866.8,664.0  "
fill="#FFFFAF" fill-opacity="0.25" stroke="none" />

<polygon points="714.5,354.8  
740.5,341.0  896.3,647.7  881.2,655.7  "
fill="#FFFFA4" fill-opacity="0.28" stroke="none" />

<polygon points="739.7,341.4  
766.2,328.5  911.3,640.4  895.9,647.9  "
fill="#FFFF98" fill-opacity="0.32" stroke="none" />

<polygon points="765.5,328.8  
792.4,316.9  926.5,633.7  910.8,640.6  "
fill="#FFFF8D" fill-opacity="0.36" stroke="none" />

<polygon points="791.6,317.2  
818.9,306.2  941.9,627.4  926.0,633.8  "
fill="#FFFF82" fill-opacity="0.39" stroke="none" />

<polygon points="818.1,306.5  
845.8,296.4  957.5,621.8  941.4,627.6  "
fill="#FFFF76" fill-opacity="0.43" stroke="none" />

<polygon points="845.0,296.7  
873.0,287.6  973.3,616.7  957.0,621.9  "
fill="#FFFF6B" fill-opacity="0.46" stroke="none" />

<polygon points="872.3,287.8  
900.6,279.7  989.3,612.1  972.8,616.8  "
fill="#FFFF60" fill-opacity="0.50" stroke="none" />

<polygon points="899.8,279.9  
928.3,272.8  1005.4,608.1  988.8,612.2  "
fill="#FFFF54" fill-opacity="0.53" stroke="none" />

<polygon points="927.5,273.0  
956.3,266.9  1021.6,604.7  1004.9,608.2  "
fill="#FFFF49" fill-opacity="0.57" stroke="none" />

<polygon points="955.5,267.1  
984.5,262.0  1038.0,601.8  1021.2,604.7  "
fill="#FFFF3E" fill-opacity="0.60" stroke="none" />

<polygon points="983.7,262.1  
1012.9,258.0  1054.5,599.5  1037.5,601.9  "
fill="#FFFF32" fill-opacity="0.64" stroke="none" />

<polygon points="1012.1,258.1  
1041.3,255.0  1071.0,597.8  1054.0,599.5  "
fill="#FFFF27" fill-opacity="0.68" stroke="none" />

<polygon points="1040.5,255.1  
1069.9,253.1  1087.6,596.6  1070.5,597.8  "
fill="#FFFF1C" fill-opacity="0.71" stroke="none" />

<polygon points="1069.1,253.1  
1098.5,252.1  1104.2,596.1  1087.1,596.7  "
fill="#FFFF10" fill-opacity="0.75" stroke="none" />

<polygon points="1097.7,252.1  
1127.1,252.1  1120.8,596.1  1103.7,596.1  "
fill="#FFFF05" fill-opacity="0.78" stroke="none" />

<polygon points="1126.3,252.1  
1155.7,253.2  1137.4,596.7  1120.3,596.1  "
fill="#FFFD00" fill-opacity="0.80" stroke="none" />

<polygon points="1154.9,253.1  
1184.3,255.2  1154.0,597.9  1136.9,596.7  "
fill="#FFFA00" fill-opacity="0.80" stroke="none" />

<polygon points="1183.5,255.1  
1212.7,258.2  1170.5,599.6  1153.5,597.8  "
fill="#FFF700" fill-opacity="0.80" stroke="none" />

<polygon points="1211.9,258.1  
1241.1,262.2  1186.9,601.9  1170.0,599.5  "
fill="#FFF500" fill-opacity="0.80" stroke="none" />

<polygon points="1240.3,262.1  
1269.3,267.2  1203.3,604.8  1186.5,601.9  "
fill="#FFF200" fill-opacity="0.80" stroke="none" />

<polygon points="1268.5,267.1  
1297.3,273.2  1219.5,608.3  1202.8,604.7  "
fill="#FFEF00" fill-opacity="0.80" stroke="none" />

<polygon points="1296.5,273.0  
1325.0,280.2  1235.7,612.3  1219.1,608.2  "
fill="#FFEC00" fill-opacity="0.80" stroke="none" />

<polygon points="1324.2,279.9  
1352.5,288.1  1251.6,616.9  1235.2,612.2  "
fill="#FFE900" fill-opacity="0.80" stroke="none" />

<polygon points="1351.7,287.8  
1379.7,296.9  1267.4,622.1  1251.2,616.8  "
fill="#FFE600" fill-opacity="0.80" stroke="none" />

<polygon points="1379.0,296.7  
1406.6,306.8  1283.0,627.8  1267.0,621.9  "
fill="#FFE300" fill-opacity="0.80" stroke="none" />

<polygon points="1405.9,306.5  
1433.2,317.5  1298.4,634.0  1282.6,627.6  "
fill="#FFE100" fill-opacity="0.80" stroke="none" />

<polygon points="1432.4,317.2  
1459.3,329.2  1313.6,640.8  1298.0,633.8  "
fill="#FFDE00" fill-opacity="0.80" stroke="none" />

<polygon points="1458.5,328.8  
1485.0,341.7  1328.5,648.1  1313.2,640.6  "
fill="#FFDB00" fill-opacity="0.80" stroke="none" />

<polygon points="1484.3,341.4  
1510.3,355.2  1343.2,655.9  1328.1,647.9  "
fill="#FFD800" fill-opacity="0.80" stroke="none" />

<polygon points="1509.5,354.8  
1535.0,369.5  1357.6,664.2  1342.8,655.7  "
fill="#FFD500" fill-opacity="0.80" stroke="none" />

<polygon points="1534.3,369.1  
1559.3,384.7  1371.6,673.1  1357.2,664.0  "
fill="#FFD200" fill-opacity="0.80" stroke="none" />

<polygon points="1558.6,384.3  
1583.0,400.8  1385.4,682.4  1371.2,672.8  "
fill="#FFD000" fill-opacity="0.80" stroke="none" />

<polygon points="1582.3,400.3  
1606.1,417.6  1398.8,692.1  1385.0,682.1  "
fill="#FFCD00" fill-opacity="0.80" stroke="none" />

<polygon points="1605.5,417.1  
1628.7,435.3  1411.9,702.4  1398.5,691.8  "
fill="#FFCA00" fill-opacity="0.80" stroke="none" />

<polygon points="1628.0,434.7  
1650.6,453.7  1424.6,713.1  1411.6,702.1  "
fill="#FFC700" fill-opacity="0.80" stroke="none" />

<polygon points="1650.0,453.1  
1671.8,472.9  1437.0,724.2  1424.3,712.8  "
fill="#FFC400" fill-opacity="0.80" stroke="none" />

<polygon points="1671.2,472.3  
1692.4,492.8  1448.9,735.8  1436.6,723.9  "
fill="#FFC100" fill-opacity="0.80" stroke="none" />

<polygon points="1691.8,492.2  
1712.3,513.4  1460.4,747.7  1448.6,735.4  "
fill="#FFBE00" fill-opacity="0.80" stroke="none" />

<polygon points="1711.7,512.8  
1731.4,534.7  1471.6,760.1  1460.1,747.4  "
fill="#FFBC00" fill-opacity="0.81" stroke="none" />

<polygon points="1730.9,534.0  
1749.8,556.6  1482.2,772.8  1471.2,759.7  "
fill="#FFB900" fill-opacity="0.82" stroke="none" />

<polygon points="1749.3,556.0  
1767.4,579.2  1492.4,785.9  1481.9,772.4  "
fill="#FFB600" fill-opacity="0.83" stroke="none" />

<polygon points="1766.9,578.5  
1784.2,602.3  1502.2,799.4  1492.2,785.5  "
fill="#FFB300" fill-opacity="0.84" stroke="none" />

<polygon points="1783.7,601.7  
1800.2,626.1  1511.5,813.2  1501.9,799.0  "
fill="#FFB000" fill-opacity="0.84" stroke="none" />

<polygon points="1799.7,625.4  
1815.3,650.4  1520.3,827.3  1511.2,812.8  "
fill="#FFAD00" fill-opacity="0.85" stroke="none" />

<polygon points="1814.9,649.7  
1829.6,675.2  1528.5,841.6  1520.0,826.8  "
fill="#FFAB00" fill-opacity="0.86" stroke="none" />

<polygon points="1829.2,674.5  
1843.0,700.5  1536.3,856.3  1528.3,841.2  "
fill="#FFA800" fill-opacity="0.87" stroke="none" />

<polygon points="1842.6,699.7  
1855.5,726.2  1543.6,871.3  1536.1,855.9  "
fill="#FFA500" fill-opacity="0.88" stroke="none" />

<polygon points="1855.2,725.5  
1867.1,752.4  1550.3,886.5  1543.4,870.8  "
fill="#FFA200" fill-opacity="0.89" stroke="none" />

<polygon points="1866.8,751.6  
1877.8,778.9  1556.6,901.9  1550.2,886.0  "
fill="#FF9F00" fill-opacity="0.90" stroke="none" />

<polygon points="1877.5,778.1  
1887.6,805.8  1562.2,917.5  1556.4,901.4  "
fill="#FF9C00" fill-opacity="0.91" stroke="none" />

<polygon points="1887.3,805.0  
1896.4,833.0  1567.3,933.3  1562.1,917.0  "
fill="#FF9A00" fill-opacity="0.92" stroke="none" />

<polygon points="1896.2,832.3  
1904.3,860.6  1571.9,949.3  1567.2,932.8  "
fill="#FF9700" fill-opacity="0.92" stroke="none" />

<polygon points="1904.1,859.8  
1911.2,888.3  1575.9,965.4  1571.8,948.8  "
fill="#FF9400" fill-opacity="0.93" stroke="none" />

<polygon points="1911.0,887.5  
1917.1,916.3  1579.3,981.6  1575.8,964.9  "
fill="#FF9100" fill-opacity="0.94" stroke="none" />

<polygon points="1916.9,915.5  
1922.0,944.5  1582.2,998.0  1579.3,981.2  "
fill="#FF8E00" fill-opacity="0.95" stroke="none" />

<polygon points="1921.9,943.7  
1926.0,972.9  1584.5,1014.5  1582.1,997.5  "
fill="#FF8B00" fill-opacity="0.96" stroke="none" />

<polygon points="1925.9,972.1  
1929.0,1001.4  1586.2,1031.0  1584.5,1014.0  "
fill="#FF8800" fill-opacity="0.97" stroke="none" />

<polygon points="1928.9,1000.5  
1930.9,1029.9  1587.4,1047.6  1586.2,1030.5  "
fill="#FF8600" fill-opacity="0.98" stroke="none" />

<polygon points="1930.9,1029.1  
1931.9,1058.5  1587.9,1064.2  1587.3,1047.1  "
fill="#FF8300" fill-opacity="0.99" stroke="none" />

<polygon points="1931.9,1057.7  
1931.9,1087.1  1587.9,1080.8  1587.9,1063.7  "
fill="#FF8000" fill-opacity="1.00" stroke="none" />

<polygon points="1931.9,1086.3  
1930.8,1115.7  1587.3,1097.4  1587.9,1080.3  "
fill="#FF7D00" fill-opacity="1.00" stroke="none" />

<polygon points="1930.9,1114.9  
1928.8,1144.3  1586.1,1114.0  1587.3,1096.9  "
fill="#FF7A00" fill-opacity="1.00" stroke="none" />

<polygon points="1928.9,1143.5  
1925.8,1172.7  1584.4,1130.5  1586.2,1113.5  "
fill="#FF7700" fill-opacity="1.00" stroke="none" />

<polygon points="1925.9,1171.9  
1921.8,1201.1  1582.1,1146.9  1584.5,1130.0  "
fill="#FF7500" fill-opacity="1.00" stroke="none" />

<polygon points="1921.9,1200.3  
1916.8,1229.3  1579.2,1163.3  1582.1,1146.5  "
fill="#FF7200" fill-opacity="1.00" stroke="none" />

<polygon points="1916.9,1228.5  
1910.8,1257.3  1575.7,1179.5  1579.3,1162.8  "
fill="#FF6F00" fill-opacity="1.00" stroke="none" />

<polygon points="1911.0,1256.5  
1903.8,1285.0  1571.7,1195.7  1575.8,1179.1  "
fill="#FF6C00" fill-opacity="1.00" stroke="none" />

<polygon points="1904.1,1284.2  
1895.9,1312.5  1567.1,1211.6  1571.8,1195.2  "
fill="#FF6900" fill-opacity="1.00" stroke="none" />

<polygon points="1896.2,1311.7  
1887.1,1339.7  1561.9,1227.4  1567.2,1211.2  "
fill="#FF6600" fill-opacity="1.00" stroke="none" />

<polygon points="1887.3,1339.0  
1877.2,1366.6  1556.2,1243.0  1562.1,1227.0  "
fill="#FF6300" fill-opacity="1.00" stroke="none" />

<polygon points="1877.5,1365.9  
1866.5,1393.2  1550.0,1258.4  1556.4,1242.6  "
fill="#FF6100" fill-opacity="1.00" stroke="none" />

<polygon points="1866.8,1392.4  
1854.8,1419.3  1543.2,1273.6  1550.2,1258.0  "
fill="#FF5E00" fill-opacity="1.00" stroke="none" />

<polygon points="1855.2,1418.5  
1842.3,1445.0  1535.9,1288.5  1543.4,1273.2  "
fill="#FF5B00" fill-opacity="1.00" stroke="none" />

<polygon points="1842.6,1444.3  
1828.8,1470.3  1528.1,1303.2  1536.1,1288.1  "
fill="#FF5800" fill-opacity="1.00" stroke="none" />

<polygon points="1829.2,1469.5  
1814.5,1495.0  1519.8,1317.6  1528.3,1302.8  "
fill="#FF5500" fill-opacity="1.00" stroke="none" />

<polygon points="1814.9,1494.3  
1799.3,1519.3  1510.9,1331.6  1520.0,1317.2  "
fill="#FF5200" fill-opacity="1.00" stroke="none" />

<polygon points="1799.7,1518.6  
1783.2,1543.0  1501.6,1345.4  1511.2,1331.2  "
fill="#FF5000" fill-opacity="1.00" stroke="none" />

<polygon points="1783.7,1542.3  
1766.4,1566.1  1491.9,1358.8  1501.9,1345.0  "
fill="#FF4D00" fill-opacity="1.00" stroke="none" />

<polygon points="1766.9,1565.5  
1748.7,1588.7  1481.6,1371.9  1492.2,1358.5  "
fill="#FF4A00" fill-opacity="1.00" stroke="none" />

<polygon points="1749.3,1588.0  
1730.3,1610.6  1470.9,1384.6  1481.9,1371.6  "
fill="#FF4700" fill-opacity="1.00" stroke="none" />

<polygon points="1730.9,1610.0  
1711.1,1631.8  1459.8,1397.0  1471.2,1384.3  "
fill="#FF4400" fill-opacity="1.00" stroke="none" />

<polygon points="1711.7,1631.2  
1691.2,1652.4  1448.2,1408.9  1460.1,1396.6  "
fill="#FF4100" fill-opacity="1.00" stroke="none" />

<polygon points="1691.8,1651.8  
1670.6,1672.3  1436.3,1420.4  1448.6,1408.6  "
fill="#FF3E00" fill-opacity="1.00" stroke="none" />

<polygon points="1671.2,1671.7  
1649.3,1691.4  1423.9,1431.6  1436.6,1420.1  "
fill="#FF3C00" fill-opacity="1.00" stroke="none" />

<polygon points="1650.0,1690.9  
1627.4,1709.8  1411.2,1442.2  1424.3,1431.2  "
fill="#FF3900" fill-opacity="1.00" stroke="none" />

<polygon points="1628.0,1709.3  
1604.8,1727.4  1398.1,1452.4  1411.6,1441.9  "
fill="#FF3600" fill-opacity="1.00" stroke="none" />

<polygon points="1605.5,1726.9  
1581.7,1744.2  1384.6,1462.2  1398.5,1452.2  "
fill="#FF3300" fill-opacity="1.00" stroke="none" />

<polygon points="1582.3,1743.7  
1557.9,1760.2  1370.8,1471.5  1385.0,1461.9  "
fill="#FF3000" fill-opacity="1.00" stroke="none" />

<polygon points="1558.6,1759.7  
1533.6,1775.3  1356.7,1480.3  1371.2,1471.2  "
fill="#FF2E00" fill-opacity="1.00" stroke="none" />

<polygon points="1534.3,1774.9  
1508.8,1789.6  1342.4,1488.5  1357.2,1480.0  "
fill="#FF2B00" fill-opacity="1.00" stroke="none" />

<polygon points="1509.5,1789.2  
1483.5,1803.0  1327.7,1496.3  1342.8,1488.3  "
fill="#FF2800" fill-opacity="1.00" stroke="none" />

<polygon points="1484.3,1802.6  
1457.8,1815.5  1312.7,1503.6  1328.1,1496.1  "
fill="#FF2500" fill-opacity="1.00" stroke="none" />

<polygon points="1458.5,1815.2  
1431.6,1827.1  1297.5,1510.3  1313.2,1503.4  "
fill="#FF2200" fill-opacity="1.00" stroke="none" />

<polygon points="1432.4,1826.8  
1405.1,1837.8  1282.1,1516.6  1298.0,1510.2  "
fill="#FF2000" fill-opacity="1.00" stroke="none" />

<polygon points="1405.9,1837.5  
1378.2,1847.6  1266.5,1522.2  1282.6,1516.4  "
fill="#FF1D00" fill-opacity="1.00" stroke="none" />

<polygon points="1379.0,1847.3  
1351.0,1856.4  1250.7,1527.3  1267.0,1522.1  "
fill="#FF1A00" fill-opacity="1.00" stroke="none" />

<polygon points="1351.7,1856.2  
1323.4,1864.3  1234.7,1531.9  1251.2,1527.2  "
fill="#FF1700" fill-opacity="1.00" stroke="none" />

<polygon points="1324.2,1864.1  
1295.7,1871.2  1218.6,1535.9  1235.2,1531.8  "
fill="#FF1400" fill-opacity="1.00" stroke="none" />

<polygon points="1296.5,1871.0  
1267.7,1877.1  1202.4,1539.3  1219.1,1535.8  "
fill="#FF1200" fill-opacity="1.00" stroke="none" />

<polygon points="1268.5,1876.9  
1239.5,1882.0  1186.0,1542.2  1202.8,1539.3  "
fill="#FF0F00" fill-opacity="1.00" stroke="none" />

<polygon points="1240.3,1881.9  
1211.1,1886.0  1169.5,1544.5  1186.5,1542.1  "
fill="#FF0C00" fill-opacity="1.00" stroke="none" />

<polygon points="1211.9,1885.9  
1182.6,1889.0  1153.0,1546.2  1170.0,1544.5  "
fill="#FF0900" fill-opacity="1.00" stroke="none" />

<polygon points="1183.5,1888.9  
1154.1,1890.9  1136.4,1547.4  1153.5,1546.2  "
fill="#FF0600" fill-opacity="1.00" stroke="none" />

<polygon points="1154.9,1890.9  
1125.5,1891.9  1119.8,1547.9  1136.9,1547.3  "
fill="#FF0400" fill-opacity="1.00" stroke="none" />

<polygon points="1126.3,1891.9  
1096.9,1891.9  1103.2,1547.9  1120.3,1547.9  "
fill="#FF0100" fill-opacity="1.00" stroke="none" />

<polygon points="1097.7,1891.9  
1068.3,1890.8  1086.6,1547.3  1103.7,1547.9  "
fill="#FE0000" fill-opacity="1.00" stroke="none" />

<polygon points="1069.1,1890.9  
1039.7,1888.8  1070.0,1546.1  1087.1,1547.3  "
fill="#FD0000" fill-opacity="1.00" stroke="none" />

<polygon points="1040.5,1888.9  
1011.3,1885.8  1053.5,1544.4  1070.5,1546.2  "
fill="#FC0001" fill-opacity="1.00" stroke="none" />

<polygon points="1012.1,1885.9  
982.9,1881.8  1037.1,1542.1  1054.0,1544.5  "
fill="#FB0001" fill-opacity="1.00" stroke="none" />

<polygon points="983.7,1881.9  
954.7,1876.8  1020.7,1539.2  1037.5,1542.1  "
fill="#F90002" fill-opacity="1.00" stroke="none" />

<polygon points="955.5,1876.9  
926.7,1870.8  1004.5,1535.7  1021.2,1539.3  "
fill="#F80002" fill-opacity="1.00" stroke="none" />

<polygon points="927.5,1871.0  
899.0,1863.8  988.3,1531.7  1004.9,1535.8  "
fill="#F70002" fill-opacity="1.00" stroke="none" />

<polygon points="899.8,1864.1  
871.5,1855.9  972.4,1527.1  988.8,1531.8  "
fill="#F60003" fill-opacity="1.00" stroke="none" />

<polygon points="872.3,1856.2  
844.3,1847.1  956.6,1521.9  972.8,1527.2  "
fill="#F50003" fill-opacity="1.00" stroke="none" />

<polygon points="845.0,1847.3  
817.4,1837.2  941.0,1516.2  957.0,1522.1  "
fill="#F40004" fill-opacity="1.00" stroke="none" />

<polygon points="818.1,1837.5  
790.8,1826.5  925.6,1510.0  941.4,1516.4  "
fill="#F30004" fill-opacity="1.00" stroke="none" />

<polygon points="791.6,1826.8  
764.7,1814.8  910.4,1503.2  926.0,1510.2  "
fill="#F20005" fill-opacity="1.00" stroke="none" />

<polygon points="765.5,1815.2  
739.0,1802.3  895.5,1495.9  910.8,1503.4  "
fill="#F10005" fill-opacity="1.00" stroke="none" />

<polygon points="739.7,1802.6  
713.7,1788.8  880.8,1488.1  895.9,1496.1  "
fill="#EF0006" fill-opacity="1.00" stroke="none" />

<polygon points="714.5,1789.2  
689.0,1774.5  866.4,1479.8  881.2,1488.3  "
fill="#EE0006" fill-opacity="1.00" stroke="none" />

<polygon points="689.7,1774.9  
664.7,1759.3  852.4,1470.9  866.8,1480.0  "
fill="#ED0006" fill-opacity="1.00" stroke="none" />

<polygon points="665.4,1759.7  
641.0,1743.2  838.6,1461.6  852.8,1471.2  "
fill="#EC0007" fill-opacity="1.00" stroke="none" />

<polygon points="641.7,1743.7  
617.9,1726.4  825.2,1451.9  839.0,1461.9  "
fill="#EB0007" fill-opacity="1.00" stroke="none" />

<polygon points="618.5,1726.9  
595.3,1708.7  812.1,1441.6  825.5,1452.1  "
fill="#EA0008" fill-opacity="1.00" stroke="none" />

<polygon points="596.0,1709.3  
573.4,1690.3  799.4,1430.9  812.4,1441.9  "
fill="#E90008" fill-opacity="1.00" stroke="none" />

<polygon points="574.0,1690.9  
552.2,1671.1  787.0,1419.8  799.7,1431.2  "
fill="#E80009" fill-opacity="1.00" stroke="none" />

<polygon points="552.8,1671.7  
531.6,1651.2  775.1,1408.2  787.4,1420.1  "
fill="#E70009" fill-opacity="1.00" stroke="none" />

<polygon points="532.2,1651.8  
511.7,1630.6  763.6,1396.3  775.4,1408.6  "
fill="#E6000A" fill-opacity="1.00" stroke="none" />

<polygon points="512.3,1631.2  
492.6,1609.3  752.4,1383.9  763.9,1396.6  "
fill="#E6000A" fill-opacity="1.00" stroke="none" />

<polygon points="493.1,1610.0  
474.2,1587.4  741.8,1371.2  752.8,1384.3  "
fill="#E6000A" fill-opacity="1.00" stroke="none" />

<polygon points="474.7,1588.0  
456.6,1564.8  731.6,1358.1  742.1,1371.6  "
fill="#E6000A" fill-opacity="1.00" stroke="none" />

<polygon points="457.1,1565.5  
439.8,1541.7  721.8,1344.6  731.8,1358.5  "
fill="#E6000A" fill-opacity="1.00" stroke="none" />

<polygon points="440.3,1542.3  
423.8,1517.9  712.5,1330.8  722.1,1345.0  "
fill="#E6000A" fill-opacity="1.00" stroke="none" />

<polygon points="424.3,1518.6  
408.7,1493.6  703.7,1316.7  712.8,1331.2  "
fill="#E6000A" fill-opacity="1.00" stroke="none" />

<polygon points="409.1,1494.3  
394.4,1468.8  695.4,1302.4  704.0,1317.2  "
fill="#E6000A" fill-opacity="1.00" stroke="none" />

<polygon points="394.8,1469.5  
381.0,1443.5  687.7,1287.7  695.7,1302.8  "
fill="#E6000A" fill-opacity="1.00" stroke="none" />

<polygon points="381.4,1444.3  
368.5,1417.8  680.4,1272.7  687.9,1288.1  "
fill="#E6000A" fill-opacity="1.00" stroke="none" />

<polygon points="368.8,1418.5  
356.9,1391.6  673.7,1257.5  680.6,1273.2  "
fill="#E6000A" fill-opacity="1.00" stroke="none" />

<polygon points="357.2,1392.4  
346.2,1365.1  667.4,1242.1  673.8,1258.0  "
fill="#E6000A" fill-opacity="1.00" stroke="none" />

<polygon points="346.5,1365.9  
336.4,1338.2  661.8,1226.5  667.6,1242.6  "
fill="#E6000A" fill-opacity="1.00" stroke="none" />

<polygon points="336.7,1339.0  
327.6,1311.0  656.7,1210.7  661.9,1227.0  "
fill="#E6000A" fill-opacity="1.00" stroke="none" />

<polygon points="327.8,1311.7  
319.7,1283.4  652.1,1194.7  656.8,1211.2  "
fill="#E6000A" fill-opacity="1.00" stroke="none" />

<polygon points="319.9,1284.2  
312.8,1255.7  648.1,1178.6  652.2,1195.2  "
fill="#E6000A" fill-opacity="1.00" stroke="none" />

<polygon points="313.0,1256.5  
306.9,1227.7  644.7,1162.4  648.2,1179.1  "
fill="#E6000A" fill-opacity="1.00" stroke="none" />

<polygon points="307.1,1228.5  
302.0,1199.5  641.8,1146.0  644.7,1162.8  "
fill="#E6000A" fill-opacity="1.00" stroke="none" />

<polygon points="302.1,1200.3  
298.0,1171.1  639.5,1129.5  641.9,1146.5  "
fill="#E6000A" fill-opacity="1.00" stroke="none" />

<polygon points="298.1,1171.9  
295.0,1142.6  637.8,1113.0  639.5,1130.0  "
fill="#E6000A" fill-opacity="1.00" stroke="none" />

<polygon points="295.1,1143.5  
293.1,1114.1  636.6,1096.4  637.8,1113.5  "
fill="#E6000A" fill-opacity="1.00" stroke="none" />

<polygon points="293.1,1114.9  
292.1,1085.5  636.1,1079.8  636.7,1096.9  "
fill="#E6000A" fill-opacity="1.00" stroke="none" />

<polygon points="292.1,1086.3  
292.1,1056.9  636.1,1063.2  636.1,1080.3  "
fill="#E6000A" fill-opacity="1.00" stroke="none" />

</svg>
