<svg version="1.1" width="1400" height="1000" xmlns="http://www.w3.org/2000/svg">

<polygon points="3329.1,1955.9  
3321.8,1959.7  2679.3,1868.5  2682.2,1866.9  "
fill="#3F1A00" fill-opacity="1.00" stroke="none" />

<polygon points="3322.4,1959.4  
3315.0,1963.2  2676.6,1869.9  2679.6,1868.3  "
fill="#421A0E" fill-opacity="1.00" stroke="none" />

<polygon points="3315.5,1962.9  
3307.9,1966.7  2673.8,1871.3  2676.8,1869.8  "
fill="#451A1C" fill-opacity="1.00" stroke="none" />

<polygon points="3308.5,1966.4  
3300.7,1970.1  2670.9,1872.7  2674.0,1871.1  "
fill="#481A2A" fill-opacity="1.00" stroke="none" />

<polygon points="3301.3,1969.9  
3293.4,1973.6  2667.9,1874.0  2671.1,1872.5  "
fill="#4B1A38" fill-opacity="1.00" stroke="none" />

<polygon points="3294.0,1973.3  
3285.9,1977.0  2664.9,1875.4  2668.2,1873.9  "
fill="#4E1A46" fill-opacity="1.00" stroke="none" />

<polygon points="3286.5,1976.7  
3278.2,1980.3  2661.9,1876.8  2665.2,1875.3  "
fill="#511A54" fill-opacity="1.00" stroke="none" />

<polygon points="3278.9,1980.1  
3270.4,1983.7  2658.8,1878.1  2662.1,1876.6  "
fill="#541A62" fill-opacity="1.00" stroke="none" />

<polygon points="3271.1,1983.4  
3262.5,1987.0  2655.6,1879.4  2659.0,1878.0  "
fill="#5B1A6E" fill-opacity="1.00" stroke="none" />

<polygon points="3263.1,1986.7  
3254.4,1990.3  2652.3,1880.8  2655.9,1879.3  "
fill="#6F1A6E" fill-opacity="1.00" stroke="none" />

<polygon points="3255.0,1990.1  
3246.1,1993.6  2649.0,1882.1  2652.6,1880.7  "
fill="#841A6E" fill-opacity="1.00" stroke="none" />

<polygon points="3246.8,1993.3  
3237.7,1996.8  2645.7,1883.4  2649.3,1882.0  "
fill="#991A6E" fill-opacity="1.00" stroke="none" />

<polygon points="3238.4,1996.6  
3229.2,2000.1  2642.3,1884.7  2646.0,1883.3  "
fill="#AE1A6E" fill-opacity="1.00" stroke="none" />

<polygon points="3229.9,1999.8  
3220.5,2003.2  2638.8,1886.0  2642.6,1884.6  "
fill="#C31A6E" fill-opacity="1.00" stroke="none" />

<polygon points="3221.2,2003.0  
3211.7,2006.4  2635.3,1887.3  2639.1,1885.9  "
fill="#D71A6E" fill-opacity="1.00" stroke="none" />

<polygon points="3212.4,2006.1  
3202.7,2009.5  2631.7,1888.5  2635.6,1887.1  "
fill="#EC1A6E" fill-opacity="1.00" stroke="none" />

<polygon points="3203.5,2009.3  
3193.6,2012.6  2628.1,1889.8  2632.0,1888.4  "
fill="#F92568" fill-opacity="1.00" stroke="none" />

<polygon points="3194.4,2012.4  
3184.4,2015.7  2624.4,1891.0  2628.4,1889.7  "
fill="#FA435A" fill-opacity="1.00" stroke="none" />

<polygon points="3185.2,2015.5  
3175.0,2018.8  2620.6,1892.2  2624.7,1890.9  "
fill="#FA604C" fill-opacity="1.00" stroke="none" />

<polygon points="3175.8,2018.5  
3165.5,2021.8  2616.8,1893.4  2620.9,1892.1  "
fill="#FB7D3E" fill-opacity="1.00" stroke="none" />

<polygon points="3166.3,2021.5  
3155.9,2024.7  2613.0,1894.6  2617.1,1893.3  "
fill="#FC9B2F" fill-opacity="1.00" stroke="none" />

<polygon points="3156.7,2024.5  
3146.1,2027.7  2609.0,1895.8  2613.3,1894.5  "
fill="#FDB821" fill-opacity="1.00" stroke="none" />

<polygon points="3146.9,2027.5  
3136.2,2030.6  2605.1,1897.0  2609.4,1895.7  "
fill="#FDD513" fill-opacity="1.00" stroke="none" />

<polygon points="3137.0,2030.4  
3126.2,2033.5  2601.1,1898.2  2605.4,1896.9  "
fill="#FEF305" fill-opacity="1.00" stroke="none" />

<polygon points="3127.0,2033.3  
3116.0,2036.3  2597.0,1899.3  2601.4,1898.1  "
fill="#EBF109" fill-opacity="1.00" stroke="none" />

<polygon points="3116.9,2036.1  
3105.7,2039.2  2592.9,1900.4  2597.3,1899.2  "
fill="#CADA19" fill-opacity="1.00" stroke="none" />

<polygon points="3106.6,2038.9  
3095.3,2041.9  2588.7,1901.6  2593.2,1900.3  "
fill="#A9C429" fill-opacity="1.00" stroke="none" />

<polygon points="3096.2,2041.7  
3084.8,2044.7  2584.5,1902.7  2589.1,1901.5  "
fill="#89AD38" fill-opacity="1.00" stroke="none" />

<polygon points="3085.7,2044.5  
3074.1,2047.4  2580.3,1903.7  2584.9,1902.6  "
fill="#689748" fill-opacity="1.00" stroke="none" />

<polygon points="3075.0,2047.2  
3063.4,2050.1  2575.9,1904.8  2580.6,1903.7  "
fill="#478058" fill-opacity="1.00" stroke="none" />

<polygon points="3064.3,2049.9  
3052.5,2052.7  2571.6,1905.9  2576.3,1904.7  "
fill="#276A68" fill-opacity="1.00" stroke="none" />

<polygon points="3053.4,2052.5  
3041.5,2055.3  2567.2,1906.9  2572.0,1905.8  "
fill="#065377" fill-opacity="1.00" stroke="none" />

<polygon points="3042.4,2055.1  
3030.3,2057.9  2562.7,1908.0  2567.6,1906.9  "
fill="#06496E" fill-opacity="1.00" stroke="none" />

<polygon points="3031.3,2057.7  
3019.1,2060.4  2558.2,1909.0  2563.1,1907.9  "
fill="#0E425E" fill-opacity="1.00" stroke="none" />

<polygon points="3020.0,2060.2  
3007.7,2062.9  2553.7,1910.0  2558.6,1908.9  "
fill="#163B4E" fill-opacity="1.00" stroke="none" />

<polygon points="3008.7,2062.7  
2996.3,2065.4  2549.1,1911.0  2554.1,1909.9  "
fill="#1E353F" fill-opacity="1.00" stroke="none" />

<polygon points="2997.2,2065.2  
2984.7,2067.8  2544.5,1912.0  2549.5,1910.9  "
fill="#262E2F" fill-opacity="1.00" stroke="none" />

<polygon points="2985.7,2067.6  
2973.0,2070.2  2539.8,1912.9  2544.9,1911.9  "
fill="#2E271F" fill-opacity="1.00" stroke="none" />

<polygon points="2974.0,2070.0  
2961.2,2072.6  2535.1,1913.9  2540.2,1912.8  "
fill="#36200F" fill-opacity="1.00" stroke="none" />

<polygon points="2962.2,2072.4  
2949.4,2074.9  2530.3,1914.8  2535.5,1913.8  "
fill="#3F1A00" fill-opacity="1.00" stroke="none" />

<polygon points="2950.3,2074.7  
2937.4,2077.1  2525.5,1915.7  2530.7,1914.7  "
fill="#3F1A00" fill-opacity="1.00" stroke="none" />

<polygon points="2938.4,2076.9  
2925.3,2079.4  2520.7,1916.6  2525.9,1915.6  "
fill="#3F1A00" fill-opacity="1.00" stroke="none" />

</svg>
