<svg version="1.1" width="1400" height="1000" xmlns="http://www.w3.org/2000/svg">

<line x1="1549.6" y1="665.7" x2="1447.7" y2="789.7" stroke="#FFA000" stroke-opacity="1.00" stroke-width="  1.5" />
<line x1="1545.2" y1="678.9" x2="1447.2" y2="791.2" stroke="#FFAC00" stroke-opacity="1.00" stroke-width="  1.5" />
<line x1="1536.6" y1="691.2" x2="1446.3" y2="792.6" stroke="#FFB800" stroke-opacity="1.00" stroke-width="  1.5" />
<line x1="1524.1" y1="702.4" x2="1444.9" y2="793.8" stroke="#FFC200" stroke-opacity="1.00" stroke-width="  1.5" />
<line x1="1508.1" y1="711.9" x2="1443.1" y2="794.9" stroke="#FFCB00" stroke-opacity="1.00" stroke-width="  1.5" />
<line x1="1489.3" y1="719.3" x2="1441.0" y2="795.7" stroke="#FFD200" stroke-opacity="1.00" stroke-width="  1.5" />
<line x1="1468.4" y1="724.5" x2="1438.7" y2="796.3" stroke="#FFD700" stroke-opacity="1.00" stroke-width="  1.5" />
<line x1="1446.3" y1="727.1" x2="1436.3" y2="796.6" stroke="#FFD900" stroke-opacity="1.00" stroke-width="  1.5" />
<line x1="1423.7" y1="727.1" x2="1433.7" y2="796.6" stroke="#FFD900" stroke-opacity="1.00" stroke-width="  1.5" />
<line x1="1401.6" y1="724.5" x2="1431.3" y2="796.3" stroke="#FFD700" stroke-opacity="1.00" stroke-width="  1.5" />
<line x1="1380.7" y1="719.3" x2="1429.0" y2="795.7" stroke="#FFD200" stroke-opacity="1.00" stroke-width="  1.5" />
<line x1="1361.9" y1="711.9" x2="1426.9" y2="794.9" stroke="#FFCB00" stroke-opacity="1.00" stroke-width="  1.5" />
<line x1="1345.9" y1="702.4" x2="1425.1" y2="793.8" stroke="#FFC200" stroke-opacity="1.00" stroke-width="  1.5" />
<line x1="1333.4" y1="691.2" x2="1423.7" y2="792.6" stroke="#FFB800" stroke-opacity="1.00" stroke-width="  1.5" />
<line x1="1324.8" y1="678.9" x2="1422.8" y2="791.2" stroke="#FFAC00" stroke-opacity="1.00" stroke-width="  1.5" />
<line x1="1320.4" y1="665.7" x2="1422.3" y2="789.7" stroke="#FFA000" stroke-opacity="1.00" stroke-width="  1.5" />
<line x1="1320.4" y1="652.3" x2="1422.3" y2="788.3" stroke="#FF9300" stroke-opacity="1.00" stroke-width="  1.5" />
<line x1="1324.8" y1="639.1" x2="1422.8" y2="786.8" stroke="#FF8700" stroke-opacity="1.00" stroke-width="  1.5" />
<line x1="1333.4" y1="626.8" x2="1423.7" y2="785.4" stroke="#FF7B00" stroke-opacity="1.00" stroke-width="  1.5" />
<line x1="1345.9" y1="615.6" x2="1425.1" y2="784.2" stroke="#FF7100" stroke-opacity="1.00" stroke-width="  1.5" />
<line x1="1361.9" y1="606.1" x2="1426.9" y2="783.1" stroke="#FF6800" stroke-opacity="1.00" stroke-width="  1.5" />
<line x1="1380.7" y1="598.7" x2="1429.0" y2="782.3" stroke="#FF6100" stroke-opacity="1.00" stroke-width="  1.5" />
<line x1="1401.6" y1="593.5" x2="1431.3" y2="781.7" stroke="#FF5C00" stroke-opacity="1.00" stroke-width="  1.5" />
<line x1="1423.7" y1="590.9" x2="1433.7" y2="781.4" stroke="#FF5A00" stroke-opacity="1.00" stroke-width="  1.5" />
<line x1="1446.3" y1="590.9" x2="1436.3" y2="781.4" stroke="#FF5A00" stroke-opacity="1.00" stroke-width="  1.5" />
<line x1="1468.4" y1="593.5" x2="1438.7" y2="781.7" stroke="#FF5C00" stroke-opacity="1.00" stroke-width="  1.5" />
<line x1="1489.3" y1="598.7" x2="1441.0" y2="782.3" stroke="#FF6100" stroke-opacity="1.00" stroke-width="  1.5" />
<line x1="1508.1" y1="606.1" x2="1443.1" y2="783.1" stroke="#FF6800" stroke-opacity="1.00" stroke-width="  1.5" />
<line x1="1524.1" y1="615.6" x2="1444.9" y2="784.2" stroke="#FF7100" stroke-opacity="1.00" stroke-width="  1.5" />
<line x1="1536.6" y1="626.8" x2="1446.3" y2="785.4" stroke="#FF7B00" stroke-opacity="1.00" stroke-width="  1.5" />
<line x1="1545.2" y1="639.1" x2="1447.2" y2="786.8" stroke="#FF8700" stroke-opacity="1.00" stroke-width="  1.5" />
<line x1="1549.6" y1="652.3" x2="1447.7" y2="788.3" stroke="#FF9300" stroke-opacity="1.00" stroke-width="  1.5" />
</svg>
